# AST/ASF file generated using VICON BodyLanguage
# -----------------------------------------------
:version 1.10
:name VICON
:units
  mass 1.0
  length 0.45
  angle deg
:documentation
   .ast/.asf automatically generated from VICON data using
   VICON BodyBuilder and BodyLanguage model FoxedUp or BRILLIANT.MOD
:root
   order TX TY TZ RX RY RZ
   axis XYZ
   position 0 0 0  
   orientation 0 0 0 
:bonedata
  begin
     id 1 
     name lhipjoint
     direction 0.70531 -0.63749 0.310071 
     length 2.59589 
     axis 0 0 0  XYZ
  end
  begin
     id 2 
     name lfemur
     direction 0.34202 -0.939693 0  
     length 6.19797  
     axis 0 0 20  XYZ
    dof rx ry rz
    limits (-160.0 20.0)
           (-70.0 70.0)
           (-60.0 70.0)
  end
  begin
     id 3 
     name ltibia
     direction 0.34202 -0.939693 0   
     length 7.80054   
     axis 0 0 20   XYZ
    dof rx
    limits (-10.0 170.0)
  end
  begin
     id 4 
     name lfoot
     direction 0.0828572 -0.227648 0.970212   
     length 1.88124   
     axis -90 7.62852e-016 20   XYZ
    dof rx rz
    limits (-45.0 90.0)
           (-70.0 20.0)
  end
  begin
     id 5 
     name ltoes
     direction 1.53544e-011 -4.219e-011 1   
     length 0.948015   
     axis -90 7.62852e-016 20   XYZ
    dof rx
    limits (-90.0 20.0)
  end
  begin
     id 6 
     name rhipjoint
     direction -0.730062 -0.614543 0.29891   
     length 2.69282  
     axis 0 0 0  XYZ 
  end
  begin
     id 7 
     name rfemur
     direction -0.34202 -0.939693 0   
     length 5.86298   
     axis 0 0 -20   XYZ
    dof rx ry rz
    limits (-160.0 20.0)
           (-70.0 70.0)
           (-70.0 60.0)
  end
  begin
     id 8 
     name rtibia
     direction -0.34202 -0.939693 0   
     length 7.72374   
     axis 0 0 -20   XYZ
    dof rx
    limits (-10.0 170.0)
 end
 begin
     id 9 
     name rfoot
     direction -0.0967421 -0.265797 0.959163   
     length 2.02368  
     axis -90 -7.62852e-016 -20   XYZ
    dof rx rz
    limits (-45.0 90.0)
           (-20.0 70.0)
  end
  begin
     id 10 
     name rtoes
     direction -1.53524e-011 -4.21768e-011 1   
     length 1.01373   
     axis -90 -7.62852e-016 -20   XYZ
    dof rx
    limits (-90.0 20.0)
  end
  begin
     id 11 
     name lowerback
     direction 0.00561702 0.992801 -0.119643   
     length 2.02816   
     axis 0 0 0   XYZ
    dof rx ry rz
    limits (-20.0 45.0)
           (-30.0 30.0)
           (-30.0 30.0)
  end
  begin
     id 12 
     name upperback
     direction 0.00155544 0.995735 -0.0922509   
     length 2.02265   
     axis 0 0 0   XYZ
    dof rx ry rz
    limits (-20.0 45.0)
           (-30.0 30.0)
           (-30.0 30.0)
  end
  begin
     id 13 
     name thorax
     direction -0.000937535 0.999317 -0.0369292   
     length 2.04823   
     axis 0 0 0   XYZ
    dof rx ry rz
    limits (-20.0 45.0)
           (-30.0 30.0)
           (-30.0 30.0)
  end
  begin
     id 14 
     name lowerneck
     direction -0.0813151 0.981659 0.172436   
     length 1.8875   
     axis 0 0 0   XYZ
    dof rx ry rz
    limits (-20.0 45.0)
           (-30.0 30.0)
           (-30.0 30.0)
  end
  begin
     id 15 
     name upperneck
     direction 0.119359 0.955672 -0.269157   
     length 1.92801   
     axis 0 0 0   XYZ
    dof rx ry rz
    limits (-20.0 45.0)
           (-30.0 30.0)
           (-30.0 30.0)
  end
  begin
     id 16
     name head
     direction 0.0421007 0.992672 -0.113268  
     length 1.95809  
     axis 0 0 0   XYZ
    dof rx ry rz
    limits (-20.0 45.0)
           (-30.0 30.0)
           (-30.0 30.0)
  end
  begin
     id 17 
     name lclavicle
     direction 0.944093 0.32865 -0.0260136  
     length 3.84992  
     axis 0 0 0   XYZ
    dof ry rz
    limits (-20.0 10.0)
           (0.0 20.0)
  end
  begin
     id 18 
     name lhumerus
     direction 1 -4.48979e-011 -1.27712e-029   
     length 5.53593   
     axis 180 -30 -90   XYZ
    dof rx ry rz
    limits (-60.0 90.0)
           (-90.0 90.0)
           (-90.0 90.0)
  end
  begin
     id 19
     name lradius
     direction 1 -4.48966e-011 1.00051e-028   
     length 3.13345   
     axis 180 -30 -90   XYZ
    dof rx
    limits (-10.0 170.0)
  end
  begin
     id 20
     name lwrist
     direction 1 -4.4896e-011 2.56952e-028   
     length 1.56673   
     axis -5.12785e-016 90 90   XYZ
    dof ry
    limits (-180.0 0.0)
 end
  begin
     id 21 
     name lhand
     direction 1 -4.48934e-011 5.13905e-028   
     length 0.713374   
     axis -3.27915e-016 90 90   XYZ
    dof rx rz
    limits (-90.0 90.0)
           (-45.0 45.0)
  end
  begin
     id 22 
     name lfingers
     direction 1 -4.48973e-011 1.02781e-027   
     length 0.575141   
     axis -6.5583e-016 90 90   XYZ
    dof rx
    limits (0.0 90.0)
  end
  begin
     id 23
     name lthumb
     direction 0.707107 -6.34883e-011 0.707107   
     length 0.82579   
     axis -90 45 2.85299e-015   XYZ
    dof rx rz
    limits (-45.0 45.0)
           (-45.0 45.0)
  end
  begin
     id 24 
     name rclavicle
     direction -0.936895 0.34884 0.0232243   
     length 3.53304  
     axis 0 0 0   XYZ 
    dof ry rz
    limits (-10.0 20.0)
           (-20.0 0.0)
  end
  begin
     id 25 
     name rhumerus
     direction -1 -4.48965e-011 1.05514e-027  
     length 5.4685   
     axis 180 30 90   XYZ
    dof rx ry rz
    limits (-90.0 60.0)
           (-90.0 90.0)
           (-90.0 90.0)
  end
  begin
     id 26 
     name rradius
     direction -1 -4.48964e-011 -1.1079e-027   
     length 3.22411   
     axis 180 30 90   XYZ
    dof rx
    limits (-10.0 170.0)
  end
  begin
     id 27 
     name rwrist
     direction -1 -4.48973e-011 2.56952e-028   
     length 1.61206   
     axis -5.12785e-016 -90 -90   XYZ
    dof ry
    limits (-180.0 0.0)
  end
  begin
     id 28
     name rhand
     direction -1 -4.48957e-011 5.13905e-028   
     length 0.74528   
     axis -3.27915e-016 -90 -90   XYZ
    dof rx rz
    limits (-90.0 90.0)
           (-45.0 45.0)
  end
  begin
     id 29
     name rfingers
     direction -1 -4.4901e-011 1.02781e-027   
     length 0.600864   
     axis -6.5583e-016 -90 -90   XYZ
    dof rx
    limits (0.0 90.0)
  end
  begin
     id 30
     name rthumb
     direction -0.707107 -6.34972e-011 0.707107   
     length 0.862724   
     axis -90 -45 -2.85299e-015   XYZ
    dof rx rz
    limits (-45.0 45.0)
           (-45.0 45.0)
  end
:hierarchy
  begin
    root lhipjoint rhipjoint lowerback
    lhipjoint lfemur
    lfemur ltibia
    ltibia lfoot
    lfoot ltoes
    rhipjoint rfemur
    rfemur rtibia
    rtibia rfoot
    rfoot rtoes
    lowerback upperback
    upperback thorax
    thorax lowerneck lclavicle rclavicle
    lowerneck upperneck
    upperneck head
    lclavicle lhumerus
    lhumerus lradius
    lradius lwrist
    lwrist lhand lthumb
    lhand lfingers
    rclavicle rhumerus
    rhumerus rradius
    rradius rwrist
    rwrist rhand rthumb
    rhand rfingers
  end

#!OML:ASF G:\Work\Work\Patient Classification 1\Liu\Session 1\Liu.ASF
:FULLY-SPECIFIED
:DEGREES
307
root 10.0306 16.0571 8.43563 5.32873 -2.94014 -5.9681
lowerback -0.522631 1.50151 6.92202
upperback 0.575761 1.92593 0.966629
thorax 1.08327 1.00844 -2.84821
lowerneck -24.4705 -5.04858 -11.364
upperneck 29.1231 -6.44133 10.8674
head 15.0186 -2.49732 5.2029
rclavicle 2.7072e-014 -2.88238e-015
rhumerus -35.316 21.7753 -87.9168
rradius 49.3839
rwrist -16.2265
rhand -18.0434 21.442
rfingers 7.12502
rthumb 8.22842 -8.37776
lclavicle 2.7072e-014 -2.88238e-015
lhumerus -41.8118 -9.725 91.5448
lradius 29.9243
lwrist 1.32434
lhand -13.5821 32.9125
lfingers 7.12502
lthumb 12.5321 62.5167
rfemur 16.1978 1.4915 30.7579
rtibia 0
rfoot -7.47259 -0.838421
rtoes -17.9794
lfemur -42.7931 2.5808 -16.9977
ltibia 31.5854
lfoot -13.2035 5.76302
ltoes -5.18458
308
root 10.0478 16.0624 8.66692 5.44405 -3.34838 -6.09323
lowerback -0.60287 1.59617 7.05587
upperback 0.571971 2.04357 0.979554
thorax 1.14079 1.06969 -2.90431
lowerneck -24.375 -4.96837 -11.396
upperneck 29.2345 -6.30217 10.7932
head 15.0243 -2.45589 5.2106
rclavicle 4.73356e-015 1.78906e-015
rhumerus -34.9438 21.7586 -87.6246
rradius 49.8541
rwrist -16.2637
rhand -18.2761 21.6914
rfingers 7.12502
rthumb 8.00389 -8.13701
lclavicle 4.73356e-015 1.78906e-015
lhumerus -42.3208 -8.79806 91.2545
lradius 29.3086
lwrist 0.568193
lhand -13.086 33.0641
lfingers 7.12502
lthumb 13.0103 62.6384
rfemur 16.9271 1.71253 30.6776
rtibia 0
rfoot -7.15036 -0.681546
rtoes -17.7912
lfemur -42.1941 0.573344 -15.4359
ltibia 28.385
lfoot -13.897 6.49263
ltoes -4.4089
309
root 10.0661 16.0686 8.89879 5.58292 -3.67634 -6.22979
lowerback -0.788538 1.68541 7.25936
upperback 0.687363 2.13777 0.9629
thorax 1.38286 1.12887 -3.02411
lowerneck -24.4666 -4.94943 -11.3066
upperneck 29.2755 -6.23217 10.5916
head 15.0389 -2.44167 5.1234
rclavicle 6.75868e-015 -7.7526e-015
rhumerus -34.3551 21.673 -87.3434
rradius 50.1569
rwrist -15.9408
rhand -18.7339 21.7071
rfingers 7.12502
rthumb 7.56198 -8.13771
lclavicle 6.75868e-015 -7.7526e-015
lhumerus -42.3721 -7.9912 90.8949
lradius 28.3416
lwrist -0.267732
lhand -12.6679 33.0797
lfingers 7.12502
lthumb 13.4133 62.6278
rfemur 17.6613 1.86996 30.5794
rtibia -4.13472e-014
rfoot -6.76662 -0.45069
rtoes -16.5593
lfemur -41.932 -1.69979 -13.6682
ltibia 25.7513
lfoot -14.8059 7.69659
ltoes -5.41174
310
root 10.078 16.0688 9.1289 5.62438 -4.07497 -6.49513
lowerback -0.816053 1.81129 7.49362
upperback 0.850441 2.29089 0.97884
thorax 1.59286 1.21829 -3.1288
lowerneck -24.7592 -4.93894 -11.2154
upperneck 29.3515 -6.20385 10.5252
head 15.1268 -2.42152 5.08963
rclavicle 3.86885e-014 1.89839e-014
rhumerus -33.6581 21.6187 -87.0474
rradius 50.4824
rwrist -15.748
rhand -18.8598 21.3523
rfingers 7.12502
rthumb 7.44052 -8.49688
lclavicle 3.86885e-014 1.89839e-014
lhumerus -42.2144 -7.10183 90.4356
lradius 27.1248
lwrist -1.2562
lhand -12.2887 33.0015
lfingers 7.12502
lthumb 13.7788 62.5252
rfemur 18.5029 2.07752 30.6678
rtibia -3.81667e-014
rfoot -6.41567 -0.24203
rtoes -16.5583
lfemur -41.8582 -3.93832 -11.6614
ltibia 23.7799
lfoot -15.7661 9.10221
ltoes -4.75442
311
root 10.0885 16.0707 9.35839 5.65761 -4.49882 -6.58958
lowerback -0.852864 1.94779 7.50809
upperback 0.914203 2.46559 0.983439
thorax 1.69946 1.31063 -3.12344
lowerneck -24.7466 -4.88815 -11.2581
upperneck 29.3678 -6.10517 10.5067
head 15.1172 -2.38773 5.11028
rclavicle 1.1865e-014 -2.95195e-014
rhumerus -33.2394 21.5592 -86.7305
rradius 50.9511
rwrist -15.7791
rhand -18.7616 21.1472
rfingers 7.12502
rthumb 7.53526 -8.69854
lclavicle 1.1865e-014 -2.95195e-014
lhumerus -42.337 -6.16727 90.0342
lradius 26.1813
lwrist -2.05417
lhand -11.85 33.3001
lfingers 7.12502
lthumb 14.2015 62.7946
rfemur 19.2786 2.29202 30.5969
rtibia -5.40694e-014
rfoot -5.94854 -0.138782
rtoes -18.2293
lfemur -41.9624 -5.95927 -9.99889
ltibia 22.5377
lfoot -16.9884 10.3439
ltoes -0.502142
312
root 10.1077 16.0692 9.60449 5.70425 -4.93601 -6.70163
lowerback -0.980775 2.07663 7.65985
upperback 0.889065 2.62406 0.967014
thorax 1.77099 1.39315 -3.21476
lowerneck -24.6057 -4.83665 -11.2385
upperneck 29.4763 -6.01486 10.3753
head 15.1152 -2.37024 5.07316
rclavicle -8.68441e-015 1.66979e-014
rhumerus -33.0869 21.5217 -86.6074
rradius 51.2648
rwrist -16.0576
rhand -19.0597 21.3653
rfingers 7.12502
rthumb 7.24753 -8.49061
lclavicle -8.68441e-015 1.66979e-014
lhumerus -42.8253 -5.20194 89.5846
lradius 25.4995
lwrist -3.12283
lhand -11.2232 33.8243
lfingers 7.12502
lthumb 14.8055 63.2754
rfemur 20.0847 2.54108 30.4759
rtibia 2.54444e-014
rfoot -5.16157 -0.0630156
rtoes -19.2733
lfemur -42.0344 -7.24334 -8.87836
ltibia 21.7618
lfoot -17.832 11.2077
ltoes 2.23245
313
root 10.1253 16.0559 9.85817 5.75565 -5.11547 -7.04253
lowerback -1.15524 2.15896 8.06841
upperback 0.867896 2.70985 0.990785
thorax 1.87612 1.44346 -3.40725
lowerneck -24.4139 -4.78935 -11.2208
upperneck 29.5617 -5.98202 10.3775
head 15.1063 -2.35966 5.08173
rclavicle 1.99282e-014 8.74653e-015
rhumerus -33.0053 21.4132 -86.6043
rradius 51.4375
rwrist -16.3193
rhand -19.6067 21.8641
rfingers 7.12502
rthumb 6.71946 -8.00928
lclavicle 1.99282e-014 8.74653e-015
lhumerus -43.1734 -4.31035 89.049
lradius 24.4833
lwrist -4.5584
lhand -11.1065 33.5531
lfingers 7.12502
lthumb 14.9179 62.9959
rfemur 20.9836 2.56232 30.6013
rtibia 1.90833e-014
rfoot -4.28817 0.0378299
rtoes -18.5988
lfemur -41.9806 -7.13063 -8.54547
ltibia 21.2315
lfoot -17.1803 11.2079
ltoes 0.00992308
314
root 10.1351 16.0397 10.0848 5.71167 -5.43231 -7.30611
lowerback -0.903021 2.26219 8.28923
upperback 0.897334 2.8669 0.989653
thorax 1.79526 1.52224 -3.53429
lowerneck -24.337 -4.72238 -11.2068
upperneck 29.528 -5.90469 10.4084
head 15.0628 -2.32236 5.10639
rclavicle 5.76476e-015 -5.56597e-015
rhumerus -32.7733 21.2131 -86.5336
rradius 51.5729
rwrist -16.247
rhand -19.9173 22.2715
rfingers 7.12502
rthumb 6.41962 -7.61119
lclavicle 5.76476e-015 -5.56597e-015
lhumerus -43.2612 -3.45699 88.4508
lradius 23.5246
lwrist -5.63726
lhand -11.4667 32.9469
lfingers 7.12502
lthumb 14.5709 62.4151
rfemur 21.8647 2.67783 30.7077
rtibia -3.49861e-014
rfoot -3.52824 0.141693
rtoes -18.5421
lfemur -41.7139 -6.75043 -8.43582
ltibia 20.9326
lfoot -17.2178 11.1267
ltoes -1.30101
315
root 10.1513 16.0247 10.3259 5.76058 -5.4397 -7.06604
lowerback -1.04725 2.23818 8.09988
upperback 1.04814 2.8181 0.848234
thorax 2.02475 1.50937 -3.56736
lowerneck -24.825 -4.7019 -11.0885
upperneck 29.6623 -5.8377 10.2935
head 15.2124 -2.28575 5.05905
rclavicle -1.9133e-015 7.7526e-015
rhumerus -32.2197 21.1468 -86.3888
rradius 51.5854
rwrist -16.1668
rhand -20.021 22.3532
rfingers 7.12502
rthumb 6.31957 -7.53251
lclavicle -1.9133e-015 7.7526e-015
lhumerus -43.1835 -2.35968 87.6784
lradius 22.6411
lwrist -6.84646
lhand -11.523 32.5715
lfingers 7.12502
lthumb 14.5167 62.0436
rfemur 22.6378 2.49886 30.2283
rtibia -5.40694e-014
rfoot -2.81201 0.355431
rtoes -19.8407
lfemur -41.4276 -6.0149 -9.3948
ltibia 20.8683
lfoot -17.5628 10.3062
ltoes 0.811038
316
root 10.1705 16.0023 10.5679 5.79254 -5.35472 -6.91427
lowerback -1.29206 2.27187 8.05139
upperback 0.79946 2.85464 0.756893
thorax 1.91065 1.51671 -3.62996
lowerneck -23.6931 -4.62133 -11.1954
upperneck 29.6088 -5.79134 10.2759
head 14.934 -2.30775 5.0708
rclavicle 4.53478e-014 3.97569e-015
rhumerus -32.7771 20.9742 -86.4806
rradius 51.7154
rwrist -16.1546
rhand -20.1351 22.4597
rfingers 7.12502
rthumb 6.20941 -7.4293
lclavicle 4.53478e-014 3.97569e-015
lhumerus -43.9017 -1.25831 86.881
lradius 21.5254
lwrist -8.68745
lhand -11.2986 32.2549
lfingers 7.12502
lthumb 14.7328 61.7113
rfemur 23.416 2.24577 29.8107
rtibia -5.40694e-014
rfoot -1.67356 0.611435
rtoes -19.7712
lfemur -41.0433 -5.11416 -10.4421
ltibia 20.9316
lfoot -17.0596 9.59996
ltoes 1.67579
317
root 10.1869 15.9719 10.8054 5.81779 -5.47682 -7.20636
lowerback -1.29439 2.3393 8.35959
upperback 1.01461 2.92594 0.767207
thorax 2.16081 1.57133 -3.78113
lowerneck -24.4936 -4.71241 -11.1296
upperneck 29.8866 -5.88271 10.2709
head 15.2499 -2.32333 5.05819
rclavicle -2.55935e-015 -1.96797e-014
rhumerus -32.1757 20.7967 -86.2518
rradius 51.7044
rwrist -16.3206
rhand -20.2436 22.8193
rfingers 7.12502
rthumb 6.10463 -7.07273
lclavicle -2.55935e-015 -1.96797e-014
lhumerus -43.3945 -0.00181131 85.9159
lradius 20.3735
lwrist -10.6303
lhand -10.8481 32.1462
lfingers 7.12502
lthumb 15.1668 61.5704
rfemur 24.1785 2.2218 29.8554
rtibia 8.5875e-014
rfoot -0.144284 0.752082
rtoes -18.0227
lfemur -40.691 -3.90997 -11.0412
ltibia 21.3717
lfoot -15.4688 9.11221
ltoes -0.862262
318
root 10.1995 15.9428 11.0442 5.78537 -5.63612 -7.45009
lowerback -1.06206 2.38049 8.54614
upperback 1.0257 3.00029 0.753327
thorax 2.06221 1.60771 -3.9056
lowerneck -24.9635 -4.72144 -11.0726
upperneck 30.2159 -5.93243 10.3756
head 15.5182 -2.31564 5.10619
rclavicle 2.55935e-015 4.77083e-015
rhumerus -32.009 20.6245 -86.2769
rradius 51.6637
rwrist -16.4987
rhand -20.3724 23.0538
rfingers 7.12502
rthumb 5.98027 -6.84178
lclavicle 2.55935e-015 4.77083e-015
lhumerus -43.4238 1.1681 84.8821
lradius 19.5121
lwrist -12.4817
lhand -10.5514 31.7497
lfingers 7.12502
lthumb 15.4526 61.1521
rfemur 24.9698 2.22132 29.8556
rtibia -1.59028e-014
rfoot 1.53179 0.81675
rtoes -16.8659
lfemur -40.3478 -2.43412 -11.8577
ltibia 22.2491
lfoot -12.5626 8.58707
ltoes -4.09907
319
root 10.2144 15.9327 11.2887 5.62468 -5.60989 -7.44789
lowerback -0.706456 2.36698 8.53466
upperback 0.881976 3.02807 0.690341
thorax 1.71876 1.60467 -3.98346
lowerneck -24.9912 -4.70149 -10.9923
upperneck 30.5611 -5.96866 10.389
head 15.6902 -2.32291 5.11143
rclavicle -4.92489e-014 1.19271e-015
rhumerus -32.3136 20.4324 -86.4106
rradius 51.6385
rwrist -16.4922
rhand -20.6504 23.2402
rfingers 7.12502
rthumb 5.71185 -6.66278
lclavicle -4.92489e-014 1.19271e-015
lhumerus -43.931 2.34514 83.7973
lradius 18.7601
lwrist -14.4652
lhand -10.4992 31.4004
lfingers 7.12502
lthumb 15.5028 60.7989
rfemur 25.8211 2.01199 29.593
rtibia -1.90833e-014
rfoot 3.35213 1.05543
rtoes -17.6403
lfemur -40.0438 -1.27216 -12.8471
ltibia 23.3138
lfoot -8.82213 8.88996
ltoes -4.37208
320
root 10.2327 15.9525 11.5455 5.45391 -5.55512 -7.34663
lowerback -0.626645 2.36758 8.45058
upperback 0.817237 3.0426 0.629708
thorax 1.6071 1.60534 -4.00455
lowerneck -24.8586 -4.73144 -10.9164
upperneck 30.7895 -6.0397 10.2771
head 15.7714 -2.36514 5.0458
rclavicle -1.56791e-014 6.16232e-015
rhumerus -32.6632 20.1764 -86.4539
rradius 51.6611
rwrist -16.2609
rhand -20.786 23.3793
rfingers 7.12502
rthumb 5.58097 -6.52721
lclavicle -1.56791e-014 6.16232e-015
lhumerus -44.3774 3.74408 82.6267
lradius 18.0624
lwrist -16.638
lhand -10.1985 31.6591
lfingers 7.12502
lthumb 15.7925 61.0349
rfemur 26.5574 1.78469 29.1772
rtibia -9.22361e-014
rfoot 5.60012 1.25627
rtoes -18.9201
lfemur -39.981 -0.7849 -13.4562
ltibia 24.4048
lfoot -5.90649 10.2102
ltoes -2.30287
